<?xml version="1.0" standalone="no"?>
<!DOCTYPE svg PUBLIC "-//W3C//DTD SVG 20010904//EN"
 "http://www.w3.org/TR/2001/REC-SVG-20010904/DTD/svg10.dtd">
<svg version="1.0" xmlns="http://www.w3.org/2000/svg"
 width="741.000000pt" height="741.000000pt" viewBox="0 0 741.000000 741.000000"
 preserveAspectRatio="xMidYMid meet">
<metadata>
Created by potrace 1.14, written by Peter Selinger 2001-2017
</metadata>
<g transform="translate(0.000000,741.000000) scale(0.100000,-0.100000)"
fill="#000000" stroke="none">
<path d="M3590 7260 l0 -30 -290 0 -290 0 0 -30 0 -30 -80 0 c-73 0 -80 -2
-80 -20 0 -19 -7 -20 -110 -20 l-110 0 0 -30 0 -30 -80 0 -80 0 0 -30 c0 -29
-1 -30 -50 -30 -43 0 -50 -3 -50 -20 0 -17 -7 -20 -50 -20 -49 0 -50 -1 -50
-30 0 -27 -3 -30 -30 -30 -23 0 -30 -4 -30 -20 0 -17 -7 -20 -50 -20 -49 0
-50 -1 -50 -30 0 -27 -3 -30 -30 -30 -27 0 -30 -3 -30 -30 0 -29 -1 -30 -50
-30 -43 0 -50 -3 -50 -20 0 -16 -7 -20 -30 -20 -27 0 -30 -3 -30 -30 0 -23 -4
-30 -20 -30 -16 0 -20 -7 -20 -30 l0 -30 -60 0 c-53 0 -60 -2 -60 -20 0 -13
-7 -20 -20 -20 -16 0 -20 -7 -20 -30 0 -27 -3 -30 -30 -30 -27 0 -30 -3 -30
-30 0 -27 -3 -30 -30 -30 -29 0 -30 -1 -30 -50 l0 -50 -50 0 -50 0 0 -50 c0
-49 -1 -50 -30 -50 -27 0 -30 -3 -30 -30 0 -23 -4 -30 -20 -30 -16 0 -20 -7
-20 -30 l0 -30 -60 0 -60 0 0 -50 c0 -43 -3 -50 -20 -50 -18 0 -20 -7 -20 -80
l0 -80 -30 0 c-23 0 -30 -4 -30 -20 0 -13 -7 -20 -20 -20 -19 0 -20 -7 -20
-110 l0 -110 -30 0 c-29 0 -30 -1 -30 -50 0 -49 -1 -50 -30 -50 l-30 0 0 -60
c0 -53 -2 -60 -20 -60 -19 0 -20 -7 -20 -100 l0 -100 -30 0 -30 0 0 -80 0 -80
-30 0 -30 0 0 -80 c0 -73 -2 -80 -20 -80 -19 0 -20 -7 -20 -110 l0 -110 -30 0
-30 0 0 -180 0 -180 -30 0 -30 0 0 -190 c0 -183 -1 -190 -20 -190 -20 0 -20
-7 -20 -320 0 -313 0 -320 20 -320 19 0 20 -7 20 -240 l0 -240 30 0 30 0 0
-100 0 -100 30 0 c27 0 30 -3 30 -30 0 -23 4 -30 20 -30 18 0 20 7 20 80 l0
80 30 0 30 0 0 80 0 80 30 0 c27 0 30 3 30 30 0 23 4 30 20 30 16 0 20 -7 20
-30 0 -27 3 -30 30 -30 29 0 30 -1 30 -50 0 -49 1 -50 30 -50 27 0 30 -3 30
-30 0 -23 4 -30 20 -30 16 0 20 -7 20 -30 0 -27 3 -30 30 -30 29 0 30 -1 30
-50 0 -43 3 -50 20 -50 13 0 20 -7 20 -20 0 -16 7 -20 30 -20 27 0 30 -3 30
-30 0 -27 3 -30 30 -30 29 0 30 1 30 50 0 43 3 50 20 50 17 0 20 -7 20 -50 0
-49 1 -50 30 -50 l30 0 0 -80 0 -80 30 0 30 0 0 -80 c0 -73 2 -80 20 -80 17 0
20 -7 20 -50 0 -49 1 -50 30 -50 l30 0 0 -80 0 -80 30 0 30 0 0 -60 c0 -53 2
-60 20 -60 17 0 20 -7 20 -50 0 -49 1 -50 30 -50 29 0 30 -1 30 -50 l0 -50 80
0 80 0 0 260 0 260 30 0 30 0 0 -180 c0 -173 1 -180 20 -180 18 0 20 -7 20
-60 l0 -60 30 0 30 0 0 -100 c0 -93 1 -100 20 -100 16 0 20 -7 20 -30 0 -23
-4 -30 -20 -30 -13 0 -20 -7 -20 -20 0 -16 -7 -20 -30 -20 l-30 0 0 -80 c0
-73 -2 -80 -20 -80 -19 0 -20 -7 -20 -110 l0 -110 -30 0 c-27 0 -30 -3 -30
-30 0 -29 -1 -30 -50 -30 l-50 0 0 -100 0 -100 -30 0 c-27 0 -30 -3 -30 -30 0
-27 -3 -30 -30 -30 l-30 0 0 -80 c0 -73 -2 -80 -20 -80 -18 0 -20 -7 -20 -80
l0 -80 -30 0 c-23 0 -30 -4 -30 -20 0 -16 -7 -20 -30 -20 -27 0 -30 -3 -30
-30 0 -23 -4 -30 -20 -30 -16 0 -20 -7 -20 -30 0 -27 -3 -30 -30 -30 -28 0
-30 -3 -30 -35 l0 -35 1110 0 1110 0 0 35 c0 28 -4 35 -20 35 -16 0 -20 7 -20
30 0 27 -3 30 -30 30 -27 0 -30 3 -30 30 l0 30 -80 0 c-73 0 -80 2 -80 20 0
17 -7 20 -50 20 -49 0 -50 1 -50 30 l0 30 -60 0 c-53 0 -60 2 -60 20 0 17 -7
20 -50 20 -49 0 -50 1 -50 30 0 27 -3 30 -30 30 -29 0 -30 1 -30 50 l0 50 190
0 c183 0 190 -1 190 -20 0 -17 7 -20 50 -20 49 0 50 -1 50 -30 l0 -30 60 0 60
0 0 -50 0 -50 130 0 130 0 0 -30 c0 -23 4 -30 20 -30 13 0 20 -7 20 -20 0 -18
7 -20 60 -20 l60 0 0 -60 0 -60 50 0 c43 0 50 -3 50 -20 0 -16 7 -20 30 -20
20 0 30 -5 30 -15 0 -13 133 -15 1140 -15 1007 0 1140 2 1140 15 0 10 -10 15
-30 15 -29 0 -30 1 -30 50 0 49 -1 50 -30 50 l-30 0 0 100 c0 93 -1 100 -20
100 -18 0 -20 7 -20 80 l0 80 -30 0 -30 0 0 80 0 80 -30 0 -30 0 0 80 c0 73
-2 80 -20 80 -18 0 -20 7 -20 60 l0 60 -60 0 -60 0 0 50 c0 43 -3 50 -20 50
-16 0 -20 7 -20 30 0 27 -3 30 -30 30 -23 0 -30 4 -30 20 0 17 -7 20 -50 20
l-50 0 0 60 0 60 -80 0 c-73 0 -80 2 -80 20 0 16 -7 20 -30 20 -27 0 -30 3
-30 30 0 29 -1 30 -50 30 -49 0 -50 1 -50 30 0 27 3 30 30 30 23 0 30 4 30 20
0 18 -7 20 -80 20 l-80 0 0 30 c0 23 4 30 20 30 18 0 20 7 20 80 l0 80 30 0
30 0 0 130 0 130 30 0 30 0 0 130 c0 123 1 130 20 130 19 0 20 7 20 140 l0
140 30 0 c27 0 30 -3 30 -30 0 -27 3 -30 30 -30 l30 0 0 -80 0 -80 50 0 50 0
0 50 c0 43 3 50 20 50 16 0 20 7 20 30 0 27 3 30 30 30 29 0 30 1 30 50 0 49
1 50 30 50 29 0 30 -1 30 -50 l0 -50 80 0 80 0 0 50 c0 43 3 50 20 50 18 0 20
7 20 80 l0 80 30 0 30 0 0 80 0 80 30 0 30 0 0 160 c0 153 1 160 20 160 17 0
20 7 20 50 0 49 1 50 30 50 l30 0 0 -130 0 -130 30 0 c27 0 30 -3 30 -30 0
-23 4 -30 20 -30 13 0 20 -7 20 -20 0 -18 7 -20 80 -20 l80 0 0 100 0 100 30
0 30 0 0 430 0 430 -30 0 -30 0 0 210 c0 203 -1 210 -20 210 -19 0 -20 7 -20
190 l0 190 -30 0 -30 0 0 100 0 100 -30 0 c-29 0 -30 1 -30 50 0 43 -3 50 -20
50 -19 0 -20 7 -20 140 l0 140 -30 0 c-23 0 -30 4 -30 20 0 16 -7 20 -30 20
l-30 0 0 80 c0 73 -2 80 -20 80 -16 0 -20 7 -20 30 0 27 -3 30 -30 30 -27 0
-30 3 -30 30 0 27 -3 30 -30 30 -29 0 -30 1 -30 50 0 43 -3 50 -20 50 -16 0
-20 7 -20 30 0 27 -3 30 -30 30 -29 0 -30 1 -30 50 0 49 -1 50 -30 50 -23 0
-30 4 -30 20 0 13 -7 20 -20 20 -18 0 -20 7 -20 60 l0 60 -30 0 c-29 0 -30 1
-30 50 0 49 -1 50 -30 50 -27 0 -30 3 -30 30 0 23 -4 30 -20 30 -13 0 -20 7
-20 20 0 16 -7 20 -30 20 -27 0 -30 3 -30 30 0 23 -4 30 -20 30 -16 0 -20 7
-20 30 0 27 -3 30 -30 30 -23 0 -30 4 -30 20 0 16 -7 20 -30 20 -27 0 -30 3
-30 30 0 29 -1 30 -50 30 -49 0 -50 1 -50 30 0 27 -3 30 -30 30 -23 0 -30 4
-30 20 0 13 -7 20 -20 20 -16 0 -20 7 -20 30 0 27 -3 30 -30 30 -27 0 -30 3
-30 30 0 29 -1 30 -50 30 l-50 0 0 50 0 50 -60 0 -60 0 0 30 c0 29 -1 30 -50
30 -43 0 -50 3 -50 20 0 17 -7 20 -50 20 -49 0 -50 1 -50 30 l0 30 -60 0 c-53
0 -60 2 -60 20 0 18 -7 20 -70 20 l-70 0 0 30 0 30 -60 0 -60 0 0 30 0 30 -80
0 c-73 0 -80 2 -80 20 0 18 -7 20 -80 20 l-80 0 0 30 0 30 -160 0 -160 0 0 30
0 30 -180 0 -180 0 0 -30z m-960 -2910 c0 -393 0 -400 -20 -400 -20 0 -20 7
-20 400 0 393 0 400 20 400 20 0 20 -7 20 -400z m160 0 c0 -393 0 -400 -20
-400 -20 0 -20 7 -20 400 0 393 0 400 20 400 20 0 20 -7 20 -400z m160 0 c0
-393 0 -400 -20 -400 -20 0 -20 7 -20 400 0 393 0 400 20 400 20 0 20 -7 20
-400z m1600 40 l0 -80 -30 0 -30 0 0 80 0 80 30 0 30 0 0 -80z m-1440 -260 l0
-240 -30 0 -30 0 0 240 0 240 30 0 30 0 0 -240z m1600 50 l0 -130 -30 0 -30 0
0 130 0 130 30 0 30 0 0 -130z m-1440 -320 l0 -290 50 0 50 0 0 160 0 160 30
0 c27 0 30 -3 30 -30 0 -27 3 -30 30 -30 23 0 30 -4 30 -20 0 -13 7 -20 20
-20 16 0 20 -7 20 -30 0 -27 3 -30 30 -30 l30 0 0 -80 0 -80 50 0 50 0 0 110
0 110 80 0 c73 0 80 2 80 20 0 16 7 20 30 20 l30 0 0 -150 0 -150 100 0 100 0
0 70 0 70 30 0 c27 0 30 3 30 30 0 27 3 30 30 30 l30 0 0 -80 0 -80 -30 0 -30
0 0 -80 0 -80 30 0 c29 0 30 -1 30 -50 l0 -50 50 0 c49 0 50 -1 50 -30 l0 -30
80 0 80 0 0 30 c0 29 1 30 50 30 l50 0 0 50 c0 49 1 50 30 50 l30 0 0 80 0 80
-30 0 c-29 0 -30 1 -30 50 l0 50 -50 0 c-49 0 -50 1 -50 30 l0 30 80 0 80 0 0
-30 c0 -27 3 -30 30 -30 29 0 30 -1 30 -50 l0 -50 50 0 50 0 0 -50 c0 -43 3
-50 20 -50 16 0 20 -7 20 -30 0 -27 3 -30 30 -30 l30 0 0 -370 0 -370 -30 0
-30 0 0 -80 c0 -73 -2 -80 -20 -80 -13 0 -20 -7 -20 -20 0 -16 -7 -20 -30 -20
l-30 0 0 -60 0 -60 -50 0 -50 0 0 -50 0 -50 -50 0 c-49 0 -50 -1 -50 -30 0
-27 -3 -30 -30 -30 -23 0 -30 -4 -30 -20 0 -17 -7 -20 -50 -20 -49 0 -50 -1
-50 -30 l0 -30 -60 0 -60 0 0 -30 c0 -23 -4 -30 -20 -30 -13 0 -20 -7 -20 -20
0 -18 -7 -20 -60 -20 l-60 0 0 -30 c0 -29 -1 -30 -50 -30 -49 0 -50 -1 -50
-30 0 -29 -1 -30 -50 -30 -43 0 -50 -3 -50 -20 0 -19 -7 -20 -130 -20 -123 0
-130 1 -130 20 0 18 -7 20 -60 20 l-60 0 0 30 c0 29 -1 30 -50 30 -49 0 -50 1
-50 30 l0 30 -80 0 c-73 0 -80 2 -80 20 0 17 -7 20 -50 20 -49 0 -50 1 -50 30
l0 30 -60 0 -60 0 0 30 c0 29 -1 30 -50 30 -43 0 -50 3 -50 20 0 13 -7 20 -20
20 -16 0 -20 7 -20 30 0 27 -3 30 -30 30 -27 0 -30 3 -30 30 0 27 -3 30 -30
30 -23 0 -30 4 -30 20 0 13 -7 20 -20 20 -16 0 -20 7 -20 30 0 27 -3 30 -30
30 -27 0 -30 3 -30 30 0 27 -3 30 -30 30 -23 0 -30 4 -30 20 0 13 -7 20 -20
20 -16 0 -20 7 -20 30 0 27 -3 30 -30 30 -29 0 -30 1 -30 50 0 49 -1 50 -30
50 l-30 0 0 80 c0 73 -2 80 -20 80 -18 0 -20 7 -20 80 l0 80 -30 0 -30 0 0
110 0 110 -30 0 -30 0 0 100 c0 93 -1 100 -20 100 -19 0 -20 7 -20 130 l0 130
50 0 50 0 0 -70 0 -70 30 0 30 0 0 -110 0 -110 50 0 50 0 0 50 c0 49 1 50 30
50 l30 0 0 60 c0 53 2 60 20 60 13 0 20 7 20 20 0 16 7 20 30 20 27 0 30 3 30
30 0 29 1 30 50 30 49 0 50 -1 50 -30 0 -29 -1 -30 -50 -30 l-50 0 0 -50 c0
-49 -1 -50 -30 -50 l-30 0 0 -80 0 -80 30 0 c29 0 30 -1 30 -50 l0 -50 50 0
c49 0 50 -1 50 -30 l0 -30 80 0 80 0 0 30 c0 29 1 30 50 30 l50 0 0 50 c0 49
1 50 30 50 l30 0 0 80 0 80 -30 0 c-27 0 -30 3 -30 30 0 27 3 30 30 30 27 0
30 -3 30 -30 0 -27 3 -30 30 -30 27 0 30 -3 30 -30 0 -23 4 -30 20 -30 13 0
20 -7 20 -20 0 -16 7 -20 30 -20 l30 0 0 80 0 80 -30 0 c-23 0 -30 4 -30 20 0
13 -7 20 -20 20 -16 0 -20 7 -20 30 0 27 -3 30 -30 30 -23 0 -30 4 -30 20 0
16 -7 20 -30 20 l-30 0 0 60 0 60 80 0 80 0 0 180 0 180 30 0 30 0 0 -290z
m1580 240 c0 -43 -3 -50 -20 -50 -17 0 -20 7 -20 50 0 43 3 50 20 50 17 0 20
-7 20 -50z m-1100 -130 l0 -80 -30 0 -30 0 0 80 0 80 30 0 30 0 0 -80z m800
-50 c0 -27 -3 -30 -30 -30 -27 0 -30 3 -30 30 0 27 3 30 30 30 27 0 30 -3 30
-30z m160 0 c0 -27 -3 -30 -30 -30 -27 0 -30 3 -30 30 0 27 3 30 30 30 27 0
30 -3 30 -30z m140 -80 c0 -103 -1 -110 -20 -110 -19 0 -20 7 -20 110 0 103 1
110 20 110 19 0 20 -7 20 -110z m-620 20 c0 -27 -3 -30 -30 -30 -27 0 -30 3
-30 30 0 27 3 30 30 30 27 0 30 -3 30 -30z m-1600 -80 c0 -43 -3 -50 -20 -50
-16 0 -20 -7 -20 -30 0 -27 -3 -30 -30 -30 -27 0 -30 3 -30 30 0 27 3 30 30
30 29 0 30 1 30 50 0 43 3 50 20 50 17 0 20 -7 20 -50z m160 30 c0 -13 -7 -20
-20 -20 -13 0 -20 7 -20 20 0 13 7 20 20 20 13 0 20 -7 20 -20z m160 0 c0 -13
-7 -20 -20 -20 -13 0 -20 7 -20 20 0 13 7 20 20 20 13 0 20 -7 20 -20z m1120
0 c0 -16 -7 -20 -30 -20 -23 0 -30 4 -30 20 0 16 7 20 30 20 23 0 30 -4 30
-20z m-1060 -210 c0 -27 -3 -30 -30 -30 -27 0 -30 3 -30 30 0 27 3 30 30 30
27 0 30 -3 30 -30z m3060 -1040 c0 -43 -3 -50 -20 -50 -17 0 -20 7 -20 50 0
43 3 50 20 50 17 0 20 -7 20 -50z m-680 -680 l0 -210 -30 0 c-23 0 -30 4 -30
20 0 13 -7 20 -20 20 -19 0 -20 7 -20 140 0 133 1 140 20 140 17 0 20 7 20 50
0 49 1 50 30 50 l30 0 0 -210z m-840 70 c0 -73 2 -80 20 -80 17 0 20 -7 20
-50 0 -49 1 -50 30 -50 27 0 30 -3 30 -30 0 -27 3 -30 30 -30 29 0 30 -1 30
-50 0 -49 -1 -50 -30 -50 -27 0 -30 -3 -30 -30 0 -27 -3 -30 -30 -30 -29 0
-30 -1 -30 -50 0 -43 -3 -50 -20 -50 -13 0 -20 -7 -20 -20 0 -16 -7 -20 -30
-20 l-30 0 0 -60 0 -60 -30 0 c-23 0 -30 -4 -30 -20 0 -13 -7 -20 -20 -20 -16
0 -20 -7 -20 -30 l0 -30 -60 0 -60 0 0 -30 c0 -23 -4 -30 -20 -30 -13 0 -20
-7 -20 -20 0 -16 -7 -20 -30 -20 -23 0 -30 4 -30 20 0 18 -7 20 -80 20 l-80 0
0 -50 c0 -49 1 -50 30 -50 27 0 30 -3 30 -30 0 -27 -3 -30 -30 -30 -23 0 -30
-4 -30 -20 0 -17 -7 -20 -50 -20 -49 0 -50 -1 -50 -30 0 -29 -1 -30 -50 -30
-49 0 -50 -1 -50 -30 l0 -30 -190 0 -190 0 0 30 c0 29 -1 30 -50 30 -49 0 -50
1 -50 30 0 27 -3 30 -30 30 -29 0 -30 1 -30 50 l0 50 50 0 c49 0 50 -1 50 -30
l0 -30 190 0 190 0 0 160 0 160 -30 0 -30 0 0 110 c0 103 -1 110 -20 110 -19
0 -20 7 -20 100 l0 100 180 0 180 0 0 30 0 30 110 0 110 0 0 50 0 50 50 0 c49
0 50 1 50 30 0 27 3 30 30 30 27 0 30 3 30 30 0 23 4 30 20 30 13 0 20 7 20
20 0 18 7 20 60 20 l60 0 0 -80z m-2020 -70 l0 -50 50 0 c49 0 50 -1 50 -30 0
-27 3 -30 30 -30 27 0 30 -3 30 -30 0 -27 3 -30 30 -30 29 0 30 -1 30 -50 0
-49 -1 -50 -30 -50 -27 0 -30 -3 -30 -30 0 -29 -1 -30 -50 -30 -43 0 -50 -3
-50 -20 0 -16 -7 -20 -30 -20 -27 0 -30 -3 -30 -30 0 -27 -3 -30 -30 -30 l-30
0 0 240 0 240 30 0 c29 0 30 -1 30 -50z m840 -190 c0 -13 -7 -20 -20 -20 -13
0 -20 7 -20 20 0 13 7 20 20 20 13 0 20 -7 20 -20z m-40 -110 c0 -27 -3 -30
-30 -30 -23 0 -30 -4 -30 -20 0 -16 -7 -20 -30 -20 l-30 0 0 -110 c0 -103 -1
-110 -20 -110 -19 0 -20 -7 -20 -210 0 -203 1 -210 20 -210 17 0 20 -7 20 -50
l0 -50 60 0 60 0 0 -30 0 -30 260 0 260 0 0 30 c0 29 1 30 50 30 43 0 50 3 50
20 0 18 7 20 60 20 l60 0 0 30 c0 29 1 30 50 30 49 0 50 1 50 30 0 29 1 30 50
30 43 0 50 3 50 20 0 16 7 20 30 20 27 0 30 3 30 30 0 27 3 30 30 30 27 0 30
3 30 30 0 29 1 30 50 30 43 0 50 3 50 20 0 16 7 20 30 20 27 0 30 3 30 30 0
23 4 30 20 30 16 0 20 7 20 30 0 27 3 30 30 30 29 0 30 1 30 50 0 49 1 50 30
50 29 0 30 1 30 50 0 43 3 50 20 50 16 0 20 7 20 30 0 27 3 30 30 30 l30 0 0
-160 0 -160 -30 0 c-27 0 -30 -3 -30 -30 0 -23 -4 -30 -20 -30 -13 0 -20 -7
-20 -20 0 -16 -7 -20 -30 -20 -27 0 -30 -3 -30 -30 0 -27 -3 -30 -30 -30 -27
0 -30 -3 -30 -30 0 -23 -4 -30 -20 -30 -13 0 -20 -7 -20 -20 0 -16 -7 -20 -30
-20 -27 0 -30 -3 -30 -30 0 -29 -1 -30 -50 -30 -49 0 -50 -1 -50 -30 l0 -30
-60 0 c-53 0 -60 -2 -60 -20 0 -17 -7 -20 -50 -20 -49 0 -50 -1 -50 -30 0 -29
-1 -30 -50 -30 -49 0 -50 -1 -50 -30 l0 -30 -60 0 c-53 0 -60 -2 -60 -20 0
-17 -7 -20 -50 -20 -49 0 -50 -1 -50 -30 l0 -30 -180 0 -180 0 0 30 0 30 -110
0 c-103 0 -110 1 -110 20 0 17 -7 20 -50 20 -49 0 -50 1 -50 30 0 27 -3 30
-30 30 -29 0 -30 1 -30 50 0 49 -1 50 -30 50 l-30 0 0 60 c0 53 -2 60 -20 60
-19 0 -20 7 -20 260 0 253 1 260 20 260 16 0 20 7 20 30 0 27 3 30 30 30 23 0
30 4 30 20 0 16 7 20 30 20 27 0 30 3 30 30 l0 30 80 0 80 0 0 -30z m200 -80
c0 -49 1 -50 30 -50 l30 0 0 -100 0 -100 30 0 30 0 0 -60 0 -60 -190 0 -190 0
0 80 0 80 30 0 30 0 0 60 c0 53 2 60 20 60 13 0 20 7 20 20 0 16 7 20 30 20
27 0 30 3 30 30 0 27 3 30 30 30 23 0 30 4 30 20 0 13 7 20 20 20 17 0 20 -7
20 -50z m1800 0 l0 -50 -50 0 -50 0 0 50 0 50 50 0 50 0 0 -50z m-100 -120 c0
-27 -3 -30 -30 -30 -27 0 -30 3 -30 30 0 27 3 30 30 30 27 0 30 -3 30 -30z
m-2320 -380 c0 -183 1 -190 20 -190 17 0 20 -7 20 -50 0 -49 1 -50 30 -50 29
0 30 -1 30 -50 0 -49 -1 -50 -30 -50 -27 0 -30 -3 -30 -30 0 -23 -4 -30 -20
-30 -16 0 -20 -7 -20 -30 0 -27 -3 -30 -30 -30 l-30 0 0 60 0 60 -30 0 -30 0
0 240 0 240 30 0 c29 0 30 1 30 50 0 49 1 50 30 50 l30 0 0 -190z m1940 -80
c0 -43 -3 -50 -20 -50 -17 0 -20 -7 -20 -50 0 -49 -1 -50 -30 -50 -27 0 -30
-3 -30 -30 0 -23 -4 -30 -20 -30 -16 0 -20 -7 -20 -30 0 -27 -3 -30 -30 -30
-23 0 -30 -4 -30 -20 0 -17 -7 -20 -50 -20 -49 0 -50 -1 -50 -30 0 -27 -3 -30
-30 -30 -27 0 -30 -3 -30 -30 0 -29 -1 -30 -50 -30 -43 0 -50 -3 -50 -20 0
-16 -7 -20 -30 -20 -27 0 -30 -3 -30 -30 l0 -30 -80 0 -80 0 0 -30 0 -30 -80
0 -80 0 0 30 0 30 -80 0 -80 0 0 30 c0 29 1 30 50 30 43 0 50 3 50 20 0 18 7
20 60 20 l60 0 0 30 c0 29 1 30 50 30 49 0 50 1 50 30 l0 30 80 0 c73 0 80 2
80 20 0 16 7 20 30 20 27 0 30 3 30 30 0 29 1 30 50 30 49 0 50 1 50 30 0 29
1 30 50 30 43 0 50 3 50 20 0 16 7 20 30 20 27 0 30 3 30 30 0 27 3 30 30 30
27 0 30 3 30 30 0 29 1 30 50 30 43 0 50 3 50 20 0 13 7 20 20 20 17 0 20 -7
20 -50z"/>
<path d="M4710 3280 c0 -27 -3 -30 -30 -30 -23 0 -30 -4 -30 -20 0 -16 -7 -20
-30 -20 l-30 0 0 -60 0 -60 80 0 80 0 0 30 c0 27 3 30 30 30 29 0 30 1 30 50
0 43 3 50 20 50 16 0 20 7 20 30 l0 30 -70 0 -70 0 0 -30z"/>
<path d="M2470 3100 c0 -49 1 -50 30 -50 27 0 30 -3 30 -30 l0 -30 80 0 80 0
0 50 0 50 -50 0 c-49 0 -50 1 -50 30 l0 30 -60 0 -60 0 0 -50z"/>
<path d="M3650 2440 c0 -27 -3 -30 -30 -30 -29 0 -30 -1 -30 -50 0 -49 1 -50
30 -50 27 0 30 -3 30 -30 l0 -30 100 0 100 0 0 30 c0 27 3 30 30 30 29 0 30 1
30 50 0 49 -1 50 -30 50 -27 0 -30 3 -30 30 l0 30 -100 0 -100 0 0 -30z m160
-110 c0 -18 -7 -20 -60 -20 -53 0 -60 2 -60 20 0 18 7 20 60 20 53 0 60 -2 60
-20z"/>
</g>
</svg>
